<svg xmlns="http://www.w3.org/2000/svg" width="100" height="81.667" viewBox="0 0 100 81.667">
    <defs>
        <style>
            .prefix__cls-1{fill:#e8edfc}.prefix__cls-2{fill:#00aeef}.prefix__cls-4{fill:#0e3178}
        </style>
    </defs>
    <g id="prefix__price-tag">
        <path id="prefix__Path_270" d="M341.332 80.161h29.59a1.644 1.644 0 0 0 1.643-1.643V35.777a1.644 1.644 0 0 0-1.643-1.644h-29.59zm0 0" class="prefix__cls-1" data-name="Path 270" transform="translate(-274.21 -27.557)"/>
        <path id="prefix__Path_271" d="M39.769 80.161h-29.59a1.644 1.644 0 0 1-1.643-1.643V35.777a1.644 1.644 0 0 1 1.643-1.644h29.59zm0 0" class="prefix__cls-1" data-name="Path 271" transform="translate(-6.891 -27.557)"/>
        <path id="prefix__Path_272" d="M143.111 80.161h-6.229c-.182 0-.346-.74-.346-1.643V35.777c0-.9.156-1.644.346-1.644h6.229zm0 0" class="prefix__cls-2" data-name="Path 272" transform="translate(-109.842 -27.557)"/>
        <path id="prefix__Path_273" d="M341.332 80.161h2.773a4.541 4.541 0 0 0 .154-1.643V35.777a4.544 4.544 0 0 0-.154-1.644h-2.773zm0 0" class="prefix__cls-2" data-name="Path 273" transform="translate(-246.953 -27.557)"/>
        <path id="prefix__Path_274" d="M155.245 8.535h36.165a1.644 1.644 0 0 1 1.643 1.643v52.6a1.644 1.644 0 0 1-1.643 1.644h-36.165a1.644 1.644 0 0 1-1.643-1.644v-52.6a1.644 1.644 0 0 1 1.643-1.643zm0 0" class="prefix__cls-2" data-name="Path 274" transform="translate(-123.328 -6.891)"/>
        <path id="prefix__Path_275" d="M155.245 8.535h31.233a1.644 1.644 0 0 1 1.644 1.643v52.6a1.644 1.644 0 0 1-1.644 1.644h-31.233a1.644 1.644 0 0 1-1.643-1.644v-52.6a1.644 1.644 0 0 1 1.643-1.643zm0 0" data-name="Path 275" transform="translate(-123.38 -6.891)" style="fill:#dee2ee"/>
        <path id="prefix__Path_276" d="M181.743 367.167l-6.575 6.575a.822.822 0 0 0 .582 1.4h13.15a.822.822 0 0 0 .582-1.4l-6.575-6.575a.822.822 0 0 0-1.164 0zm0 0" class="prefix__cls-2" data-name="Path 276" transform="translate(-140.678 -295.124)"/>
        <path id="prefix__Path_277" d="M275.61 374.913l-6.575-6.575a.822.822 0 0 1 .582-1.4h13.151a.822.822 0 0 1 .582 1.4l-6.575 6.575a.822.822 0 0 1-1.164 0zm0 0" class="prefix__cls-2" data-name="Path 277" transform="translate(-216.168 -295.13)"/>
        <path id="prefix__Union_6" d="M-6526.082 370.179a3.287 3.287 0 0 1-3.289-3.288v-.915h-25.341a3.287 3.287 0 0 1-3.289-3.287 1.644 1.644 0 0 1 1.644-1.644 1.645 1.645 0 0 1 1.645 1.644h25.341v-48.4a3.287 3.287 0 0 1 3.289-3.288h36.166a3.287 3.287 0 0 1 3.287 3.288v1.644h25.343a3.286 3.286 0 0 1 3.287 3.287v42.74a3.288 3.288 0 0 1-3.287 3.288h-25.343v1.643a3.287 3.287 0 0 1-3.287 3.288zm0-3.288h36.166v-52.6h-36.166zm64.795-4.931v-42.741h-25.343v42.741zm-58.22-12.823a1.643 1.643 0 0 1 1.644-1.643 1.643 1.643 0 0 1 1.643 1.643c0 3.809 3.688 6.9 8.221 6.9s8.22-3.1 8.22-6.9-3.688-6.9-8.22-6.9c-6.345 0-11.507-4.57-11.507-10.191s5.163-10.193 11.507-10.193 11.506 4.572 11.506 10.193a1.644 1.644 0 0 1-1.645 1.644 1.643 1.643 0 0 1-1.642-1.644c0-3.807-3.688-6.9-8.22-6.9s-8.221 3.1-8.221 6.9 3.688 6.9 8.221 6.9c6.343 0 11.506 4.57 11.506 10.191s-5.163 10.193-11.506 10.193-11.507-4.572-11.507-10.193zm45.068 6.555V326.1a1.644 1.644 0 0 1 1.644-1.644 1.644 1.644 0 0 1 1.645 1.644v29.589a1.644 1.644 0 0 1-1.645 1.644 1.644 1.644 0 0 1-1.644-1.64zm-68.767-1.287a7.922 7.922 0 0 1-8.219-7.563 1.644 1.644 0 0 1 1.644-1.644 1.645 1.645 0 0 1 1.645 1.644 4.643 4.643 0 0 0 4.931 4.274 4.642 4.642 0 0 0 4.931-4.274 4.642 4.642 0 0 0-4.931-4.274 7.92 7.92 0 0 1-8.219-7.561 7.922 7.922 0 0 1 8.219-7.563 7.922 7.922 0 0 1 8.219 7.563 1.643 1.643 0 0 1-1.644 1.644 1.643 1.643 0 0 1-1.644-1.644 4.642 4.642 0 0 0-4.931-4.274 4.643 4.643 0 0 0-4.931 4.274 4.643 4.643 0 0 0 4.931 4.274 7.919 7.919 0 0 1 8.219 7.561 7.923 7.923 0 0 1-7.909 7.569c-.105.001-.205-.001-.311-.005z" class="prefix__cls-4" data-name="Union 6" transform="translate(6558 -311)"/>
        <path id="prefix__Path_279" d="M69.91 101.143a1.644 1.644 0 0 1-1.644-1.643V69.91a1.644 1.644 0 1 1 3.288 0V99.5a1.644 1.644 0 0 1-1.644 1.643zm0 0" class="prefix__cls-4" data-name="Path 279" transform="translate(-55.115 -54.807)"/>
        <path id="prefix__Path_280" d="M3.288 42.668v42.741H0V42.668zm0 0" data-name="Path 280" transform="translate(0 -34.448)" style="fill:#fff"/>
        <g id="prefix__Group_92" data-name="Group 92">
            <path id="prefix__Path_281" d="M1.644 50.887a1.644 1.644 0 0 0 1.643-1.643v-6.576H0v6.575a1.644 1.644 0 0 0 1.644 1.644zm0 0" class="prefix__cls-4" data-name="Path 281" transform="translate(0 -34.448)"/>
            <path id="prefix__Path_282" d="M0 161.193h3.288v-23.014a1.644 1.644 0 0 0-3.288 0zm0 0" class="prefix__cls-4" data-name="Path 282" transform="translate(0 -109.707)"/>
            <path id="prefix__Path_283" d="M3.326 104.043a1.731 1.731 0 0 0-.476-1.167l-.247-.2a1.251 1.251 0 0 0-.3-.148 1.058 1.058 0 0 0-.3-.1 2.527 2.527 0 0 0-.328-.033 1.729 1.729 0 0 0-1.167.477 1.7 1.7 0 0 0 0 2.334 1.7 1.7 0 0 0 .542.345 1.638 1.638 0 0 0 .625.131 1.727 1.727 0 0 0 1.167-.476 1.731 1.731 0 0 0 .484-1.163zm0 0" class="prefix__cls-4" data-name="Path 283" transform="translate(-.038 -82.387)"/>
            <path id="prefix__Path_284" d="M1.644 30.533A1.644 1.644 0 0 1 0 28.889 3.288 3.288 0 0 1 3.288 25.6h26.3a1.644 1.644 0 0 1 0 3.288h-26.3a1.644 1.644 0 0 1-1.644 1.645zm0 0" class="prefix__cls-4" data-name="Path 284" transform="translate(0 -20.67)"/>
            <path id="prefix__Path_287" d="M249.109 80.161a1.644 1.644 0 0 1-1.644-1.643V35.777a1.644 1.644 0 0 1 3.288 0v42.741a1.644 1.644 0 0 1-1.644 1.643zm0 0" class="prefix__cls-4" data-name="Path 287" transform="translate(-199.109 -27.557)"/>
            <path id="prefix__Path_289" d="M400.754 110.557a7.92 7.92 0 0 1-8.219-7.562 1.644 1.644 0 1 1 3.288 0 4.982 4.982 0 0 0 9.863 0 4.644 4.644 0 0 0-4.932-4.274 7.919 7.919 0 0 1-8.219-7.562 8.247 8.247 0 0 1 16.438 0 1.644 1.644 0 1 1-3.288 0 4.983 4.983 0 0 0-9.863 0 4.644 4.644 0 0 0 4.931 4.274 7.588 7.588 0 1 1 0 15.124zm0 0" class="prefix__cls-4" data-name="Path 289" transform="translate(-315.549 -67.151)"/>
            <path id="prefix__Path_292" d="M182.011 369.9h-13.15a2.465 2.465 0 0 1-1.744-4.209l6.576-6.576a2.466 2.466 0 0 1 3.488 0l6.575 6.576a2.465 2.465 0 0 1-1.744 4.209zm-11.166-3.288h9.183l-4.592-4.591zm0 0" class="prefix__cls-4" data-name="Path 292" transform="translate(-133.795 -288.236)"/>
            <path id="prefix__Path_293" d="M269.3 369.906a2.466 2.466 0 0 1-1.744-.72l-6.575-6.575a2.466 2.466 0 0 1 1.744-4.212h13.151a2.466 2.466 0 0 1 1.744 4.21l-6.575 6.575a2.462 2.462 0 0 1-1.745.722zm-4.591-8.22l4.591 4.592 4.592-4.592zm0 0" class="prefix__cls-4" data-name="Path 293" transform="translate(-209.265 -288.239)"/>
            <path id="prefix__Path_294" d="M43.683 301.956H27.245a1.644 1.644 0 0 1 0-3.288h16.438a1.644 1.644 0 1 1 0 3.288zm0 0" class="prefix__cls-4" data-name="Path 294" transform="translate(-20.67 -240.3)"/>
            <path id="prefix__Path_295" d="M212.392 327.553h-23.014a1.644 1.644 0 0 1 0-3.288h23.015a1.644 1.644 0 0 1 0 3.288zm0 0" class="prefix__cls-4" data-name="Path 295" transform="translate(-150.885 -260.896)"/>
            <path id="prefix__Path_296" d="M402.083 301.956h-16.439a1.644 1.644 0 1 1 0-3.288h16.438a1.644 1.644 0 0 1 0 3.288zm0 0" class="prefix__cls-4" data-name="Path 296" transform="translate(-308.658 -240.3)"/>
        </g>
    </g>
</svg>
