<svg xmlns="http://www.w3.org/2000/svg" id="prefix__Page-1" width="100" height="100" viewBox="0 0 100 100">
    <defs>
        <style>
            .prefix__cls-2{fill:#cad9fc}.prefix__cls-3{fill:#00aeef}.prefix__cls-4{fill:#7facfa}.prefix__cls-5{fill:#e8edfc}.prefix__cls-6{fill:#fff}.prefix__cls-7{fill:#0e3178}
        </style>
    </defs>
    <g id="prefix___037---Notification" data-name="037---Notification">
        <g id="prefix__color_copy" transform="translate(1.713 1.713)">
            <path id="prefix__Shape" d="M27.4 21.588h17.126v-8.3a3.384 3.384 0 0 1 3.425-3.321h10.276V4.982A5.062 5.062 0 0 0 53.089 0h-6.85l-4.9 5.065a5.2 5.2 0 0 1-3.75 1.578H20.636a5.2 5.2 0 0 1-3.75-1.578L11.988 0h-6.85A5.062 5.062 0 0 0 0 4.982V83.03a5.062 5.062 0 0 0 5.138 4.982h47.951a5.062 5.062 0 0 0 5.138-4.982v-22.7l-5.138 2.77v-6.639a1.687 1.687 0 0 0-1.713-1.661h-3.425a3.384 3.384 0 0 1-3.425-3.321V31.552H27.4a3.384 3.384 0 0 1-3.425-3.321v-3.322a3.384 3.384 0 0 1 3.425-3.321zm-15.413 0a4.984 4.984 0 1 1 0 9.964 4.984 4.984 0 1 1 0-9.964zm0 56.461a4.984 4.984 0 1 1 0-9.964 4.984 4.984 0 1 1 0 9.964zm35.964-9.964a3.384 3.384 0 0 1 3.425 3.321v3.321a3.384 3.384 0 0 1-3.425 3.321H27.4a3.384 3.384 0 0 1-3.425-3.321v-3.321a3.384 3.384 0 0 1 3.425-3.321zM30.826 44.836a3.384 3.384 0 0 1 3.425 3.321v3.321a3.384 3.384 0 0 1-3.425 3.322H10.275a3.384 3.384 0 0 1-3.425-3.321v-3.321a3.384 3.384 0 0 1 3.425-3.321z" style="fill:#dee2ee"/>
            <g id="prefix__Group_99" data-name="Group 99" transform="translate(6.85)">
                <path id="prefix__Shape-2" d="M23 9.425v8.563h5.138V9.425A3.435 3.435 0 0 1 31.563 6h-5.138A3.435 3.435 0 0 0 23 9.425z" class="prefix__cls-2" data-name="Shape" transform="translate(9.538 4.275)"/>
                <path id="prefix__Shape-3" d="M33.138 59.741A5.138 5.138 0 0 1 28 64.878h5.138a5.138 5.138 0 0 0 5.138-5.138V36.33l-5.138 2.86z" class="prefix__cls-2" data-name="Shape" transform="translate(13.101 23.134)"/>
                <path id="prefix__Shape-4" d="M33.138 0H28a5.138 5.138 0 0 1 5.138 5.138v5.138h5.138V5.138A5.138 5.138 0 0 0 33.138 0z" class="prefix__cls-2" data-name="Shape" transform="translate(13.101)"/>
                <path id="prefix__Shape-5" d="M36.7 44.688a1.713 1.713 0 0 0-1.713-1.713h-3.424a3.435 3.435 0 0 1-3.425-3.425V19H23v20.551a3.435 3.435 0 0 0 3.425 3.425h3.425a1.713 1.713 0 0 1 1.713 1.713v6.85l5.138-2.86z" class="prefix__cls-2" data-name="Shape" transform="translate(9.538 12)"/>
                <path id="prefix__Shape-6" d="M12.648 6.85h5.138a5.119 5.119 0 0 1-3.75-1.627L9.138 0H4l4.9 5.223a5.119 5.119 0 0 0 3.75 1.627z" class="prefix__cls-2" data-name="Shape" transform="translate(-4)"/>
            </g>
            <path id="prefix__Shape-7" d="M58.227 50v8.563a5.138 5.138 0 0 1-5.138 5.137H5.138A5.138 5.138 0 0 1 0 58.563V50a5.138 5.138 0 0 0 5.138 5.138h47.951A5.138 5.138 0 0 0 58.227 50z" class="prefix__cls-3" data-name="Shape" transform="translate(0 32.875)"/>
            <path id="prefix__Shape-8" d="M33.138 55.138v3.425A5.138 5.138 0 0 1 28 63.7h5.138a5.138 5.138 0 0 0 5.138-5.138V50a5.138 5.138 0 0 1-5.138 5.138z" class="prefix__cls-4" data-name="Shape" transform="translate(18.469 32.875)"/>
            <path id="prefix__Shape-9" d="M41.251 0l-4.9 5.223A5.119 5.119 0 0 1 32.6 6.85H15.648A5.119 5.119 0 0 1 11.9 5.223L7 0z" class="prefix__cls-3" data-name="Shape" transform="translate(4.988)"/>
            <path id="prefix__Shape-10" d="M27.6 0l-4.9 5.223a5.119 5.119 0 0 1-3.75 1.627h5.138a5.119 5.119 0 0 0 3.75-1.627L32.736 0z" class="prefix__cls-4" data-name="Shape" transform="translate(12.458)"/>
            <circle id="prefix__Oval" cx="5" cy="5" r="5" class="prefix__cls-5" transform="translate(7.287 68.121)"/>
            <rect id="prefix__Rectangle-path" width="27" height="10" class="prefix__cls-5" rx="2" transform="translate(23.363 68.121)"/>
            <path id="prefix__Shape-11" d="M30.138 41H25a3.435 3.435 0 0 1 3.425 3.425v3.425A3.435 3.435 0 0 1 25 51.275h5.138a3.435 3.435 0 0 0 3.425-3.425v-3.425A3.435 3.435 0 0 0 30.138 41z" class="prefix__cls-2" data-name="Shape" transform="translate(16.515 27.044)"/>
            <circle id="prefix__Oval-2" cx="5" cy="5" r="5" class="prefix__cls-5" data-name="Oval" transform="translate(7.287 21.601)"/>
            <rect id="prefix__Rectangle-path-2" width="27" height="10" class="prefix__cls-5" data-name="Rectangle-path" rx="2" transform="translate(7.287 44.861)"/>
            <path id="prefix__Shape-12" d="M20.138 27H15a3.435 3.435 0 0 1 3.425 3.425v3.425A3.435 3.435 0 0 1 15 37.275h5.138a3.435 3.435 0 0 0 3.425-3.425v-3.425A3.435 3.435 0 0 0 20.138 27z" class="prefix__cls-2" data-name="Shape" transform="translate(9.909 17.809)"/>
            <path id="prefix__Shape-13" d="M34.551 13v10.275H17.425A3.435 3.435 0 0 1 14 19.85v-3.425A3.435 3.435 0 0 1 17.425 13z" class="prefix__cls-5" data-name="Shape" transform="translate(9.138 8.575)"/>
            <path id="prefix__Rectangle-path-3" d="M23 13h5.138v10.275H23z" class="prefix__cls-2" data-name="Rectangle-path" transform="translate(15.237 8.575)"/>
            <path id="prefix__Shape-14" d="M80.8 9.425v39.389a3.435 3.435 0 0 1-3.425 3.425H51.757a6.922 6.922 0 0 0-3.339.856L39.7 57.942 34.563 60.8v-6.85a1.713 1.713 0 0 0-1.713-1.713h-3.425A3.435 3.435 0 0 1 26 48.814V9.425A3.435 3.435 0 0 1 29.425 6h47.951A3.435 3.435 0 0 1 80.8 9.425z" class="prefix__cls-5" data-name="Shape" transform="translate(15.773 4.275)"/>
            <path id="prefix__Shape-15" d="M39.717 33.856L31 38.7v2.86l5.138-2.86 8.717-4.847A6.922 6.922 0 0 1 48.194 33h-5.138a6.922 6.922 0 0 0-3.339.856z" class="prefix__cls-2" data-name="Shape" transform="translate(20.31 21.8)"/>
            <path id="prefix__Shape-16" d="M58.138 6H53a3.435 3.435 0 0 1 3.425 3.425v39.389A3.435 3.435 0 0 1 53 52.239h5.138a3.435 3.435 0 0 0 3.425-3.425V9.425A3.435 3.435 0 0 0 58.138 6z" class="prefix__cls-2" data-name="Shape" transform="translate(35.012 4.275)"/>
            <path id="prefix__Shape-17" d="M46.85 13.425v3.425H40v-3.425a3.425 3.425 0 1 1 6.85 0z" class="prefix__cls-5" data-name="Shape" transform="translate(26.463 6.616)"/>
            <path id="prefix__Shape-18" d="M61.4 32.838H34l2.843-4.281a3.365 3.365 0 0 0 .582-1.9V20.85a6.85 6.85 0 0 1 6.85-6.85h6.85a6.85 6.85 0 0 1 6.85 6.85v5.806a3.365 3.365 0 0 0 .582 1.9z" class="prefix__cls-3" data-name="Shape" transform="translate(21.474 9.156)"/>
            <path id="prefix__Shape-19" d="M53.57 28.557a3.365 3.365 0 0 1-.582-1.9V20.85a6.85 6.85 0 0 0-6.85-6.85H41a6.85 6.85 0 0 1 6.85 6.85v5.806a3.365 3.365 0 0 0 .582 1.9l2.843 4.281h5.138z" class="prefix__cls-6" data-name="Shape" transform="translate(26.462 9.156)"/>
            <path id="prefix__Shape-20" d="M49.275 25v1.713a5.138 5.138 0 1 1-10.275 0V25z" class="prefix__cls-5" data-name="Shape" transform="translate(25.725 16.539)"/>
        </g>
        <g id="prefix__color" transform="translate(1.713 1.713)">
            <path id="prefix__Shape-21" d="M31 55.138h5.138V50A5.138 5.138 0 0 1 31 55.138z" class="prefix__cls-6" data-name="Shape" transform="translate(22.089 32.875)"/>
            <path id="prefix__Shape-22" d="M5.138 91.58V5A4.942 4.942 0 0 1 7.58.758L6.85 0H5.138A5.068 5.068 0 0 0 0 5v86.58a5.068 5.068 0 0 0 5.138 5h5.138a5.068 5.068 0 0 1-5.138-5z" class="prefix__cls-6" data-name="Shape"/>
        </g>
        <g id="prefix__outline">
            <path id="prefix__Rectangle-path-4" d="M0 4h3.425v13.7H0z" class="prefix__cls-6" data-name="Rectangle-path" transform="translate(0 2.85)"/>
            <g id="prefix__Group_100" data-name="Group 100">
                <path id="prefix__Union_7" d="M-6637.333 375a6.667 6.667 0 0 1-6.667-6.666V295a1.666 1.666 0 0 1 1.666-1.667 1.668 1.668 0 0 1 1.667 1.667v65a3.333 3.333 0 0 0 3.333 3.333h46.667a3.332 3.332 0 0 0 3.332-3.333v-19.946l-2.524 1.4a1.664 1.664 0 0 1-1.654-.022 1.667 1.667 0 0 1-.821-1.436v-6.666h-3.333a5 5 0 0 1-5-5V310h-15a5 5 0 0 1-5-5v-3.333a5 5 0 0 1 5-5h15V290a5 5 0 0 1 5-5h8.332v-3.333a3.332 3.332 0 0 0-3.332-3.333h-5.946l-4.275 4.56a6.681 6.681 0 0 1-4.862 2.106h-16.5a6.7 6.7 0 0 1-4.864-2.106l-4.273-4.56h-5.946a3.333 3.333 0 0 0-3.333 3.333 1.667 1.667 0 0 1-.833 1.444 1.67 1.67 0 0 1-1.666 0 1.67 1.67 0 0 1-.833-1.444 6.667 6.667 0 0 1 6.667-6.666h46.667a6.667 6.667 0 0 1 6.667 6.666V285h35a5 5 0 0 1 5 5v38.334a5 5 0 0 1-5 5h-24.94a5.023 5.023 0 0 0-2.428.63L-6584 338.2v30.13a6.667 6.667 0 0 1-6.667 6.666zm-3.333-6.666a3.333 3.333 0 0 0 3.333 3.333h46.667a3.332 3.332 0 0 0 3.332-3.333v-2.594a6.585 6.585 0 0 1-3.332.927h-46.667a6.591 6.591 0 0 1-3.333-.927zm43.332-78.334v38.334a1.667 1.667 0 0 0 1.667 1.666h3.333a3.333 3.333 0 0 1 3.333 3.333v3.833l11.013-6.118a8.364 8.364 0 0 1 4.048-1.048h24.94a1.666 1.666 0 0 0 1.667-1.666V290a1.668 1.668 0 0 0-1.667-1.667h-46.667a1.668 1.668 0 0 0-1.667 1.667zm-20 11.667V305a1.665 1.665 0 0 0 1.666 1.666h15V300h-15a1.667 1.667 0 0 0-1.665 1.667zm-7.348-21.053a3.34 3.34 0 0 0 2.431 1.052h16.5a3.336 3.336 0 0 0 2.43-1.052l2.138-2.281h-25.637zm8.877 76.13a5.136 5.136 0 0 1-5.138-5.137v-3.425a5.136 5.136 0 0 1 5.138-5.137h20.549a5.138 5.138 0 0 1 5.139 5.137v3.425a5.138 5.138 0 0 1-5.139 5.137zm-1.713-8.562v3.425a1.713 1.713 0 0 0 1.713 1.712h20.549a1.713 1.713 0 0 0 1.714-1.712v-3.425a1.713 1.713 0 0 0-1.714-1.712h-20.544a1.713 1.713 0 0 0-1.717 1.712zm-19.634 1.712a6.851 6.851 0 0 1 6.85-6.85 6.851 6.851 0 0 1 6.851 6.85 6.851 6.851 0 0 1-6.851 6.85 6.851 6.851 0 0 1-6.848-6.85zm3.425 0a3.425 3.425 0 0 0 3.425 3.425 3.425 3.425 0 0 0 3.426-3.425 3.426 3.426 0 0 0-3.426-3.425 3.426 3.426 0 0 0-3.424 3.425zm1.712-16.384a5.139 5.139 0 0 1-5.137-5.137v-3.425a5.139 5.139 0 0 1 5.137-5.139h20.551a5.138 5.138 0 0 1 5.137 5.139v3.425a5.137 5.137 0 0 1-5.137 5.137zm-1.712-8.562v3.425a1.713 1.713 0 0 0 1.712 1.712h20.551a1.712 1.712 0 0 0 1.712-1.712v-3.425a1.711 1.711 0 0 0-1.712-1.712h-20.551a1.712 1.712 0 0 0-1.711 1.712zm-3.425-21.523a6.851 6.851 0 0 1 6.85-6.85 6.851 6.851 0 0 1 6.851 6.85 6.852 6.852 0 0 1-6.851 6.851 6.852 6.852 0 0 1-6.848-6.852zm3.425 0a3.425 3.425 0 0 0 3.425 3.425 3.425 3.425 0 0 0 3.426-3.425A3.426 3.426 0 0 0-6630.3 300a3.426 3.426 0 0 0-3.426 3.424zm-10.248-14.715a1.713 1.713 0 0 1 1.7-1.722h.017a1.713 1.713 0 0 1 1.712 1.714 1.713 1.713 0 0 1-1.712 1.712h-.006a1.713 1.713 0 0 1-1.71-1.704z" class="prefix__cls-7" data-name="Union 7" transform="translate(6644 -275)"/>
                <path id="prefix__Shape-23" d="M61.684 32.178a1.73 1.73 0 0 1-.288-.942v-5.823a8.578 8.578 0 0 0-6.85-8.391v-1.884a5.138 5.138 0 1 0-10.275 0v1.884a8.578 8.578 0 0 0-6.85 8.391v5.823a1.713 1.713 0 0 1-.288.949l-2.85 4.281a1.713 1.713 0 0 0 1.425 2.648h6.85a6.85 6.85 0 0 0 13.7 0h6.85a1.713 1.713 0 0 0 1.425-2.663zM47.7 15.138a1.713 1.713 0 1 1 3.425 0v1.712H47.7zm1.713 27.4a3.425 3.425 0 0 1-3.425-3.425h6.85a3.425 3.425 0 0 1-3.429 3.425zm5.138-6.85H38.907l1.075-1.613a5.117 5.117 0 0 0 .863-2.839v-5.823a5.138 5.138 0 0 1 5.138-5.138h6.85a5.138 5.138 0 0 1 5.138 5.138v5.823a5.127 5.127 0 0 0 .856 2.85L59.9 35.7z" class="prefix__cls-7" data-name="Shape" transform="translate(21.478 6.42)"/>
            </g>
        </g>
    </g>
</svg>
