<svg xmlns="http://www.w3.org/2000/svg" width="99.306" height="100" viewBox="0 0 99.306 100">
    <defs>
        <style>
            .prefix__cls-3{fill:#e8edfc}.prefix__cls-7{fill:#0e3178}
        </style>
    </defs>
    <g id="prefix___092---Traveling" data-name="092---Traveling" transform="translate(-.371 .005)">
        <g id="prefix__Icons" transform="translate(15.015 1.645)">
            <circle id="prefix__Oval" cx="30.542" cy="30.542" r="30.542" transform="translate(21.921 35.539)" style="fill:#00aeef"/>
            <path id="prefix__Shape" d="M30.5 23.136a30.542 30.542 0 0 1 0 60.813 30.542 30.542 0 1 0 0-60.813z" transform="translate(19.418 12.539)" style="fill:#7facfa"/>
            <g id="prefix__Group_93" data-name="Group 93" transform="translate(11.939 4.637)">
                <path id="prefix__Shape-2" d="M31.787 47.707c-.373 4.5-3.6 8.128-3.071 12.777.492 4.361 1.493 4.955-.458 11.284A30.542 30.542 0 0 1 16.533 33.81a10.52 10.52 0 0 0 5.939 8.162c3.394 1.459 9.723.882 9.315 5.735z" class="prefix__cls-3" data-name="Shape" transform="translate(-2.568 15.435)"/>
                <path id="prefix__Shape-3" d="M52.906 56.341A30.356 30.356 0 0 1 27.2 60.786c5.582-5.09 11.368-6.4 18.8-5.837a28.031 28.031 0 0 1 6.906 1.392z" class="prefix__cls-3" data-name="Shape" transform="translate(5.682 30.081)"/>
                <path id="prefix__Shape-4" d="M60.425 64.054a21.3 21.3 0 0 0-7.225 3.394 5.99 5.99 0 0 1-.543.356c-6.312 4.225-10.758 1.833-10.69-2.121s3.292-7.636 3.292-12.488-3.733-6.974-7.873-7.805A9.892 9.892 0 0 1 31.58 42l.594-7.11c3.173-4.055 8.637-3.716 13.574-9.926a30.542 30.542 0 0 1 14.677 39.09z" class="prefix__cls-3" data-name="Shape" transform="translate(8.231 9.269)"/>
                <path id="prefix__Shape-5" d="M24.235 29.381a12.624 12.624 0 0 0-3.275 6.058A2.511 2.511 0 0 0 24 38.475a12.59 12.59 0 0 0 3.987-1.7c10.3-9.723 7.432-6.94 13.082-12.59a2.851 2.851 0 0 0 .1-4.021l-1.951-1.849a2.868 2.868 0 0 0-4.021.1c-1.51 1.493.424-.645-10.961 10.961z" class="prefix__cls-3" data-name="Shape" transform="translate(1.781 5.351)"/>
                <path id="prefix__Shape-6" d="M27.335 10.453a2.868 2.868 0 0 0 0-4.021L25.418 4.48a2.851 2.851 0 0 0-4.021.1c-5.65 5.667-2.868 2.783-12.59 13.082a12.539 12.539 0 0 0-1.7 3.97 2.511 2.511 0 0 0 3.037 3.037 12.658 12.658 0 0 0 6.075-3.258c11.4-11.148 9.417-9.349 11.114-10.961z" class="prefix__cls-3" data-name="Shape" transform="translate(-7.037 -3.7)"/>
            </g>
            <path id="prefix__Shape-7" d="M46.933 24.936L54.3 51.762a9.638 9.638 0 0 1-2.5 9.384l-.526.543a1.391 1.391 0 0 1-2.223-.356L36.192 35.677c-.17 0-.305.458-3.394 3.258a163.876 163.876 0 0 1-14.355 10.859 1.391 1.391 0 0 0-.526 1.459l1.528 6.147a1.408 1.408 0 0 1-.356 1.324l-1.409 1.387a1.374 1.374 0 0 1-1.951 0c-8.077-8.077.1.119-13.676-13.676a1.374 1.374 0 0 1 0-1.951l1.391-1.408a1.408 1.408 0 0 1 1.323-.356l6.142 1.527a1.391 1.391 0 0 0 1.459-.526c5.5-7.568 8.28-11.979 14.117-17.8L.763 13.093a1.391 1.391 0 0 1-.356-2.223l.543-.526A9.672 9.672 0 0 1 10.333 7.8c26.385 7.211 21.532 5.922 26.826 7.364l7.822-7.824C48.833 3.489 54.5-.024 59.845 1.249a1.357 1.357 0 0 1 1 1c.475 2.036.95 7.822-6.091 14.864z" data-name="Shape" transform="translate(-.001 -.956)" style="fill:#fff"/>
            <path id="prefix__Shape-8" d="M13.154 35.547a144.94 144.94 0 0 0 14.354-10.859l-1.7-3.258c-.17 0-.305.458-3.394 3.258A144.939 144.939 0 0 1 8.063 35.547a1.391 1.391 0 0 0-.526 1.459l1.527 6.142a1.357 1.357 0 0 1-.238 1.1l1.612 1.612a1.374 1.374 0 0 0 1.951 0l1.411-1.388a1.408 1.408 0 0 0 .356-1.323l-1.527-6.142a1.391 1.391 0 0 1 .526-1.459z" class="prefix__cls-3" data-name="Shape" transform="translate(5.221 12.421)"/>
            <path id="prefix__Shape-9" d="M37.573 17.125c7.041-7.042 6.566-12.825 6.091-14.864a1.357 1.357 0 0 0-1-1 10.707 10.707 0 0 0-4.972 0 1.323 1.323 0 0 1 .882.933c.475 2.036.95 7.822-6.091 14.864l-7.822 7.89 7.364 26.826a9.689 9.689 0 0 1-1.12 7.636c.441.9.526 1.052.967 1.934a1.391 1.391 0 0 0 2.223.356l.526-.543a9.638 9.638 0 0 0 2.494-9.383L29.75 24.947z" class="prefix__cls-3" data-name="Shape" transform="translate(16.018 -.968)"/>
            <path id="prefix__Shape-10" d="M50.608 56.11a29.422 29.422 0 0 1-18.834 5.565c-4.938-.305 5.4 1.086 15.034-6.516a29.065 29.065 0 0 1 3.8.951z" data-name="Shape" transform="translate(19.792 34.948)" style="fill:#549414"/>
            <path id="prefix__Shape-11" d="M55.255 64.117a20.9 20.9 0 0 0-6.5 2.868A30.542 30.542 0 0 0 39 26.787a18.9 18.9 0 0 0 1.7-1.917 30.542 30.542 0 0 1 14.555 39.247z" data-name="Shape" transform="translate(25.341 14.361)" style="fill:#cad9fc"/>
        </g>
        <g id="prefix__Layer_2" transform="translate(.371 -.005)">
            <path id="prefix__Shape-12" d="M65.464 37.79a4.555 4.555 0 0 0 1.18-2.916c0-2.282-1.313-3.249-3.157-5.1a4.328 4.328 0 0 0-5.334-.6l-.681-2.516 7.012-7c7.427-7.442 6.945-13.773 6.416-16.139a3.028 3.028 0 0 0-2.279-2.249c-2.359-.55-8.673-1.016-16.1 6.4l-6.979 7.03-2.509-.683a4.391 4.391 0 0 0-.6-5.348l-1.908-1.918a4.428 4.428 0 0 0-6.281.1l-3.738 3.732L20.2 7.768A11.112 11.112 0 0 0 9.4 10.65l-.532.533A3.037 3.037 0 0 0 9.653 16L20.8 21.6a12.269 12.269 0 0 0-.98 3.016 4.126 4.126 0 0 0 4.985 4.765 13.958 13.958 0 0 0 5.8-2.866l2.143 1.15c-4.752 5-6.929 8.33-12.279 15.861L14.638 42a3.052 3.052 0 0 0-2.858.783l-1.38 1.388a3.038 3.038 0 0 0 0 4.282l13.393 13.428a3.018 3.018 0 0 0 4.27 0l1.363-1.381a2.988 2.988 0 0 0 .814-2.849l-1.446-5.831a129.165 129.165 0 0 0 15.752-12.331l1.063 2.133a14.313 14.313 0 0 0-1.512 2.2A31.546 31.546 0 1 0 65.4 37.79zm7.842 5.248c-3.655 3.549-7 4-9.737 6.064l-1.994-7.364.714-.733a27.681 27.681 0 0 1 11.016 2.033zM59.5 32.242a1.128 1.128 0 0 1 1.578-.1c3.007 3.016 3.057 2.249-.565 5.881l-1.4-5.365zM36.587 9.217a1.128 1.128 0 0 1 1.578-.117l1.911 1.9a1.135 1.135 0 0 1-.1 1.666l-.415.383-5.317-1.449zM24.258 26.111a1.028 1.028 0 0 1-.964-.167 1 1 0 0 1-.166-.966 9.764 9.764 0 0 1 .665-1.883l3.473 1.749a10.884 10.884 0 0 1-3.008 1.267zm19.656 9.43c-5.649 5.648-9.82 8.33-17.23 13.678a2.97 2.97 0 0 0-1.163 3.181l1.462 5.864-1.03 1.05L12.976 46.3l1.03-1.033 5.849 1.466a2.97 2.97 0 0 0 3.174-1.166l5.1-7.164c6.845-9.6 9.321-9.68 9.005-11.562a1.666 1.666 0 0 0-.9-1.216l-24.707-12.4A7.779 7.779 0 0 1 19.324 11l25.82 7.064a2.488 2.488 0 0 0 2.409-.65l7.327-7.331C60.895 4.036 65.68 4.1 67.657 4.5c.4 1.966.465 6.781-5.566 12.812l-7.311 7.347a2.5 2.5 0 0 0-.648 2.416l7.028 25.874a7.894 7.894 0 0 1-2.243 7.814L46.573 35.99a1.659 1.659 0 0 0-2.658-.45zM49.1 48.469a8.641 8.641 0 0 1-2.077.7.782.782 0 0 1-.964-.966 10.763 10.763 0 0 1 1.3-3.215zm-.4 22.508c-.349 4.115-3.589 7.78-3.024 12.9.432 3.815 1.163 4.282.233 8.18A28.164 28.164 0 0 1 35.474 62.4a10.5 10.5 0 0 0 4.985 4.582c3.704 1.43 8.49.88 8.241 3.995zM58.669 97.4a18.454 18.454 0 0 1 5.815-2.732 29.3 29.3 0 0 1 11.3-.2 27.964 27.964 0 0 1-17.1 2.849zM79.7 92.086a32.282 32.282 0 0 0-16.05-.566 22.61 22.61 0 0 0-9.138 4.832 27.278 27.278 0 0 1-5.633-2.466 15.451 15.451 0 0 0 .415-8.6c-.5-2.9-.648-3.749 1.1-8.214a20.87 20.87 0 0 0 1.662-5.9 5.249 5.249 0 0 0-3.323-5.448c-2.476-1.083-4.885-1.083-6.912-1.916a8.678 8.678 0 0 1-4.636-6.281 28.481 28.481 0 0 1 4.636-7.114c.332-.367.714-.7 1.063-1.066a3.935 3.935 0 0 0 1.063 1.966c1.861 1.883 4.32 1.233 6.646.15l5.583 11.179a3.02 3.02 0 0 0 4.835.783 17.706 17.706 0 0 0 1.412-1.549 13.01 13.01 0 0 0 4.985 2.324c2.924.633 6.4 2.233 6.414 6.114 0 4.3-3.14 8.064-3.223 12.229s3.323 6.431 7.194 5.914 6.214-2.949 9.138-4.432A28.179 28.179 0 0 1 79.72 92zm9.388-12.4a23.617 23.617 0 0 0-6.862 3.332l-.2.133a11.017 11.017 0 0 1-4.652 2.016c-1.894.25-3.489-.6-3.439-2.549 0-3.332 3.223-7.247 3.223-12.3 0-4.7-3.323-8.114-9.022-9.38a8.582 8.582 0 0 1-4.087-2.066 11.208 11.208 0 0 0 .432-6.231c2.742-2.882 7.278-3.016 11.963-8.164a28.208 28.208 0 0 1 12.661 35.12z" class="prefix__cls-7" data-name="Shape" transform="translate(4.954 -.995)"/>
            <path id="prefix__Union_2" d="M-6719.986 657.847c-11.181-5.057-17.968-12.794-20.072-22.957-2.987-14.508 4.615-30.61 13.438-40.1a1.7 1.7 0 0 1 2.315 0 1.7 1.7 0 0 1 .162 2.31c-7.958 8.6-15.288 23.892-12.59 37.144 1.833 9.01 7.94 15.916 18.138 20.514a1.7 1.7 0 0 1 .757 2.2 1.7 1.7 0 0 1-1.548 1 1.7 1.7 0 0 1-.6-.111zm4.854-5.227c-16.034-10.638-16.442-27.148-8.756-34.851a1.705 1.705 0 0 1 2.41 0 1.7 1.7 0 0 1 0 2.41c-6.3 6.26-5.8 20.275 8.212 29.625a1.7 1.7 0 0 1 .679 1.9 1.7 1.7 0 0 1-1.611 1.208h-.016a1.59 1.59 0 0 1-.919-.292zm4.387-5.293c-11.166-11.215-4.243-24.315-.985-21.074a1.7 1.7 0 0 1 .5 1.2 1.7 1.7 0 0 1-.5 1.2 8.184 8.184 0 0 0-1.7 6.651 16.8 16.8 0 0 0 5.091 9.6 1.7 1.7 0 0 1 0 2.41 1.7 1.7 0 0 1-1.2.5 1.7 1.7 0 0 1-1.207-.488zm-12.276-54.229a1.7 1.7 0 0 1 1.7-1.7 1.7 1.7 0 0 1 1.7 1.7 1.7 1.7 0 0 1-1.7 1.7 1.7 1.7 0 0 1-1.701-1.698z" class="prefix__cls-7" data-name="Union 2" transform="translate(6740.719 -561.422)"/>
        </g>
    </g>
</svg>
