<svg xmlns="http://www.w3.org/2000/svg" id="prefix___011---Plane-Ticket" width="99.911" height="99.911" data-name="011---Plane-Ticket" viewBox="0 0 99.911 99.911">
    <defs>
        <style>
            .prefix__cls-1{fill:#e8edfc}.prefix__cls-2{fill:#cad9fc}.prefix__cls-3{fill:#00aeef}.prefix__cls-4{fill:#fff}.prefix__cls-5{fill:#0e3178}
        </style>
    </defs>
    <g id="prefix__Icons" transform="translate(1.665 1.665)">
        <path id="prefix__Shape" d="M96.581 40.448a8.787 8.787 0 0 1-1.482 4.9h-.017a8.825 8.825 0 0 1-7.36 3.946H60.979L57.8 55.951l-3.164 6.661-5.446 11.423a3.305 3.305 0 0 1-3 1.9h-4.56A3.34 3.34 0 0 1 38.3 72.6V49.29H6.661A6.661 6.661 0 0 1 0 42.63V2.665A1.665 1.665 0 0 1 1.665 1h5.262a1.679 1.679 0 0 1 1.649 1.382l4.746 26.926H82.26a16.575 16.575 0 0 1 11.723 4.862 8.849 8.849 0 0 1 2.6 6.278z" class="prefix__cls-1" transform="translate(0 .665)"/>
        <path id="prefix__Shape-2" d="M63.118 22.862A16.575 16.575 0 0 0 51.4 18h-5a16.575 16.575 0 0 1 11.723 4.862 8.86 8.86 0 0 1 1.116 11.173h-.017a8.825 8.825 0 0 1-7.36 3.946h5a8.825 8.825 0 0 0 7.36-3.946h.017a8.86 8.86 0 0 0-1.116-11.173z" class="prefix__cls-2" data-name="Shape" transform="translate(30.865 11.973)"/>
        <path id="prefix__Shape-3" d="M47.262 29.973H23V3.33A3.34 3.34 0 0 1 26.33 0h4.563a3.305 3.305 0 0 1 3 1.9z" class="prefix__cls-3" data-name="Shape" transform="translate(15.299)"/>
        <g id="prefix__Group_91" data-name="Group 91" transform="translate(0 56.616)">
            <path id="prefix__Shape-4" d="M66.607 38v33.3H3.33A3.34 3.34 0 0 1 0 67.973V38h38.3v9.991a3.34 3.34 0 0 0 3.33 3.33h4.563a3.305 3.305 0 0 0 3-1.9L54.635 38z" class="prefix__cls-4" data-name="Shape" transform="translate(0 -31.339)"/>
            <path id="prefix__Shape-5" d="M63.313 51.321a6.647 6.647 0 0 0 5.279 6.511 1.692 1.692 0 0 1 1.382 1.649v8.492a3.34 3.34 0 0 1-3.33 3.33H40V38h29.973v5.162a1.692 1.692 0 0 1-1.382 1.649 6.647 6.647 0 0 0-5.278 6.51z" class="prefix__cls-1" data-name="Shape" transform="translate(26.607 -31.339)"/>
            <path id="prefix__Shape-6" d="M38.3 34v6.661H0V37.33A3.34 3.34 0 0 1 3.33 34z" class="prefix__cls-1" data-name="Shape" transform="translate(0 -34)"/>
            <path id="prefix__Shape-7" d="M74.756 37.33v3.33H32.81L35.974 34h35.452a3.34 3.34 0 0 1 3.33 3.33z" class="prefix__cls-1" data-name="Shape" transform="translate(21.825 -34)"/>
        </g>
        <path id="prefix__Shape-8" d="M58 34h-5a3.34 3.34 0 0 1 3.33 3.33v3.33h5v-3.33A3.34 3.34 0 0 0 58 34z" class="prefix__cls-2" data-name="Shape" transform="translate(35.255 22.616)"/>
        <path id="prefix__Shape-9" d="M63.313 51.321a6.647 6.647 0 0 0 5.279 6.511 1.692 1.692 0 0 1 1.382 1.649v8.492a3.34 3.34 0 0 1-3.33 3.33H40V38h29.973v5.162a1.692 1.692 0 0 1-1.382 1.649 6.647 6.647 0 0 0-5.278 6.51z" class="prefix__cls-4" data-name="Shape" transform="translate(26.607 25.277)"/>
        <path id="prefix__Shape-10" d="M58.317 51.321a6.647 6.647 0 0 0 5.283 6.511 1.692 1.692 0 0 1 1.382 1.649v8.492a3.34 3.34 0 0 1-3.33 3.33H40V38h24.978v5.162a1.692 1.692 0 0 1-1.378 1.649 6.647 6.647 0 0 0-5.283 6.51z" class="prefix__cls-3" data-name="Shape" transform="translate(26.607 25.277)"/>
    </g>
    <g id="prefix__Layer_2" transform="translate(0 3.33)">
        <path id="prefix__Rectangle-path" d="M0 1h3.33v13.321H0z" class="prefix__cls-4" transform="translate(0 .665)"/>
        <path id="prefix__Shape-11" d="M4.33 72.964h5A3.34 3.34 0 0 1 6 69.634V36.33A3.34 3.34 0 0 1 9.326 33h-5A3.34 3.34 0 0 0 1 36.33v33.3a3.34 3.34 0 0 0 3.33 3.334z" class="prefix__cls-4" data-name="Shape" transform="translate(.665 21.951)"/>
        <path id="prefix__Shape-12" d="M7.661 48.29h5A6.661 6.661 0 0 1 6 41.63V1.665A1.665 1.665 0 0 1 7.661 0h-5A1.665 1.665 0 0 0 1 1.665V41.63a6.661 6.661 0 0 0 6.661 6.66z" class="prefix__cls-4" data-name="Shape" transform="translate(.665)"/>
    </g>
    <g id="prefix__Layer_3">
        <path id="prefix__Union_5" d="M76.573 31.638a1.665 1.665 0 1 1 0-3.33H79.9a1.665 1.665 0 1 1 0 3.33zm-19.982 0a1.665 1.665 0 0 1 0-3.33h3.332a1.665 1.665 0 0 1 0 3.33zm-9.989 0a1.665 1.665 0 1 1 0-3.33h3.33a1.665 1.665 0 0 1 0 3.33zm-19.983 0a1.665 1.665 0 1 1 0-3.33h3.329a1.665 1.665 0 1 1 0 3.33zm-9.992 0a1.665 1.665 0 0 1 0-3.33h3.33a1.665 1.665 0 1 1 0 3.33zM0 1.672A1.662 1.662 0 0 1 1.655 0h.02a1.665 1.665 0 0 1 0 3.33h-.01A1.664 1.664 0 0 1 0 1.672z" class="prefix__cls-5" data-name="Union 5" transform="translate(.025 9.992)"/>
        <path id="prefix__Union_4" d="M78.653 21.356v-4.929a1.674 1.674 0 0 1 3.347 0v4.929a1.674 1.674 0 0 1-3.347 0zm-6.7 0v-4.929a1.673 1.673 0 0 1 3.346 0v4.929a1.673 1.673 0 0 1-3.346 0zm-6.692 0v-4.929a1.674 1.674 0 0 1 3.347 0v4.929a1.674 1.674 0 0 1-3.347 0zm-6.694-1.644v-1.641a1.673 1.673 0 0 1 3.346 0v1.641a1.673 1.673 0 0 1-3.346 0zm-56.9-1.641a1.643 1.643 0 1 1 0-3.285h50.2a1.643 1.643 0 1 1 0 3.285zm56.9-6.573V9.857a1.673 1.673 0 0 1 3.346 0V11.5a1.673 1.673 0 0 1-3.346 0zm-56.9 0a1.643 1.643 0 1 1 0-3.285H25.1a1.643 1.643 0 1 1 0 3.285zm56.9-8.214v-1.64a1.673 1.673 0 0 1 3.346 0v1.641a1.673 1.673 0 0 1-3.346 0zM1.674 4.929a1.643 1.643 0 1 1 0-3.285H25.1a1.643 1.643 0 1 1 0 3.285z" class="prefix__cls-5" data-name="Union 4" transform="translate(8 70)"/>
        <path id="prefix__Shape-13" d="M89.387 53.286a10.466 10.466 0 0 0 8.626-4.509 2.02 2.02 0 0 0 .137-.178 10.526 10.526 0 0 0-1.332-13.275 18.127 18.127 0 0 0-12.892-5.35H65.275L52.36 2.854A5 5 0 0 0 47.857 0h-4.562a5 5 0 0 0-5 5v24.973H16.384L11.878 4.406a3.35 3.35 0 0 0-3.286-2.741H3.33A3.33 3.33 0 0 0 0 5a1.665 1.665 0 1 0 3.33 0H8.6L13 29.973H8.326a1.665 1.665 0 0 0 0 3.33h75.6a14.82 14.82 0 0 1 10.546 4.374 6.962 6.962 0 0 1 .51.621H86.59a1.665 1.665 0 0 0 0 3.33h9.88a7.319 7.319 0 0 1 .112 1.149 7.137 7.137 0 0 1-1.1 3.817 1.906 1.906 0 0 0-.12.167 7.142 7.142 0 0 1-5.971 3.194H65.275l2.831-5.945a1.665 1.665 0 1 0-3.006-1.431L57.938 57.6c-.008.018-.018.035-.025.053l-8.557 17.996a1.665 1.665 0 0 1-1.5.949h-4.561a1.665 1.665 0 0 1-1.665-1.665V43.295a1.665 1.665 0 0 0-3.33 0v6.661H8.326a5 5 0 0 1-5-5V18.317a1.665 1.665 0 1 0-3.33 0V44.96a8.336 8.336 0 0 0 8.326 8.326H38.3v3.33H5a5 5 0 0 0-5 5v33.3a5 5 0 0 0 5 5h89.92a5 5 0 0 0 5-5v-8.493a3.33 3.33 0 0 0-2.7-3.262 5 5 0 0 1 0-9.778 3.33 3.33 0 0 0 2.7-3.27v-8.5a5 5 0 0 0-5-5h-32.8l1.585-3.33zM41.63 5a1.665 1.665 0 0 1 1.665-1.67h4.563a1.634 1.634 0 0 1 1.5.949l12.231 25.694H41.63zM5 59.947h33.3v3.33H3.33v-1.665A1.665 1.665 0 0 1 5 59.947zm84.92 18.317a8.361 8.361 0 0 0 6.661 8.159v8.492a1.665 1.665 0 0 1-1.665 1.665H69.938a1.665 1.665 0 0 0-3.33 0H5a1.665 1.665 0 0 1-1.67-1.664V66.607H38.3v8.326a5 5 0 0 0 5 5h4.558a5.019 5.019 0 0 0 4.511-2.847l5-10.474h39.177l-.025 3.509a8.361 8.361 0 0 0-6.601 8.143zm6.661-16.652l-.012 1.665H69.938v-3.33h24.978a1.665 1.665 0 0 1 1.665 1.665zm-29.974-1.665v3.33h-7.671l1.587-3.33z" class="prefix__cls-5" data-name="Shape"/>
    </g>
</svg>
