<svg xmlns="http://www.w3.org/2000/svg" width="100.001" height="100" viewBox="0 0 100.001 100">
    <defs>
        <style>
            .prefix__cls-1{fill:#e8edfc}.prefix__cls-2{fill:#cad9fc}.prefix__cls-4{fill:#fff}.prefix__cls-5{fill:#0e3178}
        </style>
    </defs>
    <g id="prefix__Page-1" transform="translate(.002 -.129)">
        <g id="prefix___032---Planning-Route" data-name="032---Planning-Route" transform="translate(-.002 .129)">
            <path id="prefix__Shape" d="M98.6 43.865a8.271 8.271 0 0 1-.15 1.562c-.683 3.629-4.282 5.393-7.431 6.2-8.314 2.167-16.195 4.687-20.66 12.8-2.016 3.679-2.966 7.879-7.2 9.677a29.49 29.49 0 0 1-7.431 1.7c-12.1 1.764-23.443 4.486-35.522 1.075a9.654 9.654 0 0 1-3.216-1.462 4.028 4.028 0 0 1-1.7-3.226c0-2.856 2.982-5.964 4.748-7.879 3.466-3.763 7.881-6.552 11.713-9.912h.017v-.017c3.482-3.041 4.682-6.938 1.25-10.618a14.049 14.049 0 0 0-5.748-3.478c-4.865-1.73-9.98-2.621-14.845-4.334a29.936 29.936 0 0 1-6.5-2.974C3.976 31.7 2.06 29.787 2.06 27.351a5.51 5.51 0 0 1 .05-.739 7.8 7.8 0 0 1 3.849-4.822 51.71 51.71 0 0 1 25.459-8.652 41.387 41.387 0 0 1 19.26 3.162 118.6 118.6 0 0 1 11.8 5.846l1.3.706a41.028 41.028 0 0 0 4 8.534c.15.252.3.487.467.722a48.3 48.3 0 0 0 12.029 12.8 47.2 47.2 0 0 0 9.647-9.442c1.333.638 2.233 1.092 2.416 1.176a18.408 18.408 0 0 1 4.515 2.688 6.314 6.314 0 0 1 1.748 4.535z" class="prefix__cls-1" transform="translate(-.276 8.039)"/>
            <path id="prefix__Shape-2" d="M33.752 16.292a119.99 119.99 0 0 1 11.894 5.846l1.31.706a40.874 40.874 0 0 0 4.032 8.534c.151.252.3.487.47.722a48.463 48.463 0 0 0 12.13 12.8s1-.672 2.52-1.954A50 50 0 0 1 56.5 32.1c-.168-.235-.319-.47-.47-.722A40.874 40.874 0 0 1 52 22.844l-1.31-.706a119.99 119.99 0 0 0-11.894-5.846 42.373 42.373 0 0 0-18.658-3.2 44.429 44.429 0 0 1 13.618 3.2z" class="prefix__cls-2" data-name="Shape" transform="translate(11.544 8.452)"/>
            <path id="prefix__Shape-3" d="M86.136 30.244a18.594 18.594 0 0 0-4.553-2.688c-.185-.084-1.092-.538-2.436-1.176-.482.617-.964 1.2-1.445 1.759a12.1 12.1 0 0 1 3.398 2.105 6.285 6.285 0 0 1 1.76 4.536 8.205 8.205 0 0 1-.151 1.562c-.689 3.629-4.318 5.393-7.493 6.2-8.383 2.167-16.33 4.687-20.832 12.8-2.033 3.679-2.99 7.879-7.258 9.677a29.944 29.944 0 0 1-7.493 1.7c-7.046 1.02-13.838 2.352-20.664 2.643 8.548.38 16.933-1.374 25.7-2.643a29.944 29.944 0 0 0 7.493-1.7c4.267-1.8 5.225-6 7.258-9.677 4.5-8.114 12.449-10.634 20.832-12.8 3.175-.806 6.8-2.57 7.493-6.2a8.205 8.205 0 0 0 .155-1.562 6.285 6.285 0 0 0-1.764-4.536z" class="prefix__cls-2" data-name="Shape" transform="translate(10.42 17.124)"/>
            <path id="prefix__Shape-4" d="M32.055 48.581v.019h-.017a16.484 16.484 0 0 0-4.519-2.335c-4.906-1.747-10.063-2.638-14.969-4.351A31.08 31.08 0 0 1 6 38.955a7.289 7.289 0 0 1-3.9-5.645H2V21.55h.1c0 2.436 1.932 4.351 3.9 5.628a30.305 30.305 0 0 0 6.552 2.974c4.906 1.714 10.063 2.6 14.969 4.334a14.188 14.188 0 0 1 5.8 3.478c3.455 3.679 2.245 7.576-1.266 10.617z" class="prefix__cls-2" data-name="Shape" transform="translate(-.317 14.145)"/>
            <path id="prefix__Shape-5" d="M94 31.38v11.76a8.2 8.2 0 0 1-.151 1.562c-.689 3.629-4.318 5.393-7.493 6.216-8.383 2.167-16.33 4.687-20.832 12.785-2.033 3.7-2.99 7.879-7.258 9.677a29.944 29.944 0 0 1-7.493 1.7c-12.2 1.781-23.637 4.486-35.817 1.075a8.933 8.933 0 0 1-3.226-1.465A3.993 3.993 0 0 1 10 71.465V59.7a4.019 4.019 0 0 0 1.714 3.226 9.773 9.773 0 0 0 3.242 1.462c12.18 3.41 23.621.689 35.817-1.075a29.944 29.944 0 0 0 7.493-1.7c4.267-1.8 5.225-6 7.258-9.677 4.5-8.114 12.449-10.634 20.832-12.8 3.175-.806 6.8-2.57 7.493-6.2A8.206 8.206 0 0 0 94 31.38z" data-name="Shape" transform="translate(4.32 20.524)" style="fill:#00aeef"/>
            <path id="prefix__Shape-6" d="M73.33 12.02a18.393 18.393 0 0 0-33.7 0A18.816 18.816 0 0 0 38 19.7a35.545 35.545 0 0 0 1.848 11.323 40.874 40.874 0 0 0 4.032 8.534c.151.252.3.487.47.722a48.463 48.463 0 0 0 12.13 12.8 47.415 47.415 0 0 0 9.727-9.442 41.015 41.015 0 0 0 2.4-3.36c.151-.235.319-.47.47-.722A37.464 37.464 0 0 0 74.96 19.7a18.816 18.816 0 0 0-1.63-7.678zM56.362 31.24a11.694 11.694 0 1 1 8.259-3.467 11.76 11.76 0 0 1-8.259 3.467z" class="prefix__cls-1" data-name="Shape" transform="translate(23.36 .464)"/>
            <path id="prefix__Shape-7" d="M66.87 12.021A18.329 18.329 0 0 0 47.5 1.18a18.54 18.54 0 0 1 14.33 10.841 18.816 18.816 0 0 1 1.63 7.679 37.464 37.464 0 0 1-5.88 19.857c-.151.252-.319.487-.47.722a41.008 41.008 0 0 1-2.4 3.36 50.628 50.628 0 0 1-7.21 7.487c1.524 1.282 2.52 1.954 2.52 1.954a47.415 47.415 0 0 0 9.727-9.442 41.013 41.013 0 0 0 2.4-3.36c.151-.235.319-.47.47-.722A37.464 37.464 0 0 0 68.5 19.7a18.816 18.816 0 0 0-1.63-7.678z" class="prefix__cls-2" data-name="Shape" transform="translate(29.82 .463)"/>
            <ellipse id="prefix__Oval" cx="11.642" cy="11.76" class="prefix__cls-1" rx="11.642" ry="11.76" transform="translate(68.08 8.183)"/>
            <path id="prefix__Shape-8" d="M49.95 5a11.528 11.528 0 0 0-2.52.284 11.78 11.78 0 0 1 0 22.952 11.528 11.528 0 0 0 2.52.284 11.76 11.76 0 0 0 0-23.52z" class="prefix__cls-2" data-name="Shape" transform="translate(29.773 3.183)"/>
            <path id="prefix__Shape-9" d="M2.106 39.115c0 4.575 6.231 7.142 10.45 8.6 6.962 2.433 15.2 3.415 19.488 6.686-3.864 3.36-8.316 6.149-11.81 9.912-1.781 1.915-4.788 5.023-4.788 7.879v11.76a3.993 3.993 0 0 0 1.73 3.226 8.932 8.932 0 0 0 3.224 1.463 47.853 47.853 0 0 0 15.18 1.571 44.607 44.607 0 0 1-10.139-1.571 8.933 8.933 0 0 1-3.226-1.462 3.993 3.993 0 0 1-1.73-3.226V72.194c0-2.856 3.007-5.964 4.788-7.879a45.429 45.429 0 0 1 5.208-4.67 5.04 5.04 0 0 0-1.749-8.79c-3.57-1.008-7.525-1.877-11.138-3.138-4.218-1.46-10.45-4.032-10.45-8.6-.168 0-.1.936-.1-11.76.188 0 .039.111.151-.739a7.807 7.807 0 0 1 3.882-4.822 52.427 52.427 0 0 1 25.67-8.652c.192-.018.39-.024.583-.039a36.273 36.273 0 0 0-5.623.039 52.427 52.427 0 0 0-25.67 8.652 7.807 7.807 0 0 0-3.881 4.822c-.113.85.037.739-.151.739 0 12.7-.067 11.76.1 11.76z" class="prefix__cls-4" data-name="Shape" transform="translate(-.322 8.035)"/>
            <path id="prefix__Shape-10" d="M16.266 13.765l1.06 3.192a47.443 47.443 0 0 0-11.609 5.725l-1.875-2.79a50.823 50.823 0 0 1 12.424-6.127z" class="prefix__cls-4" data-name="Shape" transform="translate(.936 8.994)"/>
            <g id="prefix__Group_95" data-name="Group 95">
                <path id="prefix__Union_3" d="M-6554.537 685.3a10.441 10.441 0 0 1-3.793-1.755 5.616 5.616 0 0 1-2.334-4.509v-11.689a1.56 1.56 0 0 1 .041-.195c.116-3.29 2.957-6.4 4.9-8.5l.252-.274a59.122 59.122 0 0 1 7.406-6.408c.9-.691 1.8-1.4 2.7-2.125a18.753 18.753 0 0 0-2.2-.934c-2.414-.863-4.963-1.528-7.428-2.17-2.44-.638-4.963-1.3-7.415-2.155a32.353 32.353 0 0 1-6.85-3.115 9 9 0 0 1-4.585-6.335 1.682 1.682 0 0 1-.152-.683v-11.685a1.7 1.7 0 0 1 .148-.668c.012-.107 0-.211.021-.317a9.267 9.267 0 0 1 4.559-5.911 1.665 1.665 0 0 1 2.316.441 1.674 1.674 0 0 1-.442 2.321 6.347 6.347 0 0 0-3.141 3.674c-.313 2.008 1.5 3.641 3.074 4.659a28.8 28.8 0 0 0 6.143 2.782c2.351.822 4.829 1.467 7.228 2.09 2.511.653 5.108 1.328 7.63 2.222a15.5 15.5 0 0 1 6.418 3.894 8.144 8.144 0 0 1 2.485 6.08 9.993 9.993 0 0 1-3.864 6.873c-1.486 1.3-3.074 2.526-4.606 3.711a55.763 55.763 0 0 0-7 6.034l-.256.274c-1.571 1.7-4.2 4.537-4.042 6.6a2.339 2.339 0 0 0 1.061 1.7 8.344 8.344 0 0 0 2.653 1.17c9.94 2.787 19.444 1.287 29.51-.3 1.758-.279 3.529-.558 5.315-.817l.564-.081a25.722 25.722 0 0 0 6.453-1.49c2.681-1.13 3.792-3.494 5.073-6.232.419-.889.843-1.788 1.32-2.658 4.725-8.517 12.965-11.262 21.71-13.527 2.546-.647 5.672-2.018 6.212-4.857a5.011 5.011 0 0 0-1.142-4.57 10.307 10.307 0 0 0-2.787-1.709c-.4-.195-.8-.393-1.2-.6h-.008c-.044-.023-.091-.043-.135-.068l-.419-.2-.736-.36a47.759 47.759 0 0 1-9.195 8.693 1.661 1.661 0 0 1-1.856 0 49.5 49.5 0 0 1-12.5-13.21l-.1-.142c-.142-.213-.279-.424-.411-.653a41.812 41.812 0 0 1-3.9-8.135l-.749-.4a116.2 116.2 0 0 0-11.635-5.735 39.878 39.878 0 0 0-18.494-3.021 58.35 58.35 0 0 0-13.166 2.632 1.687 1.687 0 0 1-2.1-1.031 1.65 1.65 0 0 1 .069-1.292 1.646 1.646 0 0 1 .977-.846 61.446 61.446 0 0 1 13.92-2.787 43.18 43.18 0 0 1 20.046 3.245 105.48 105.48 0 0 1 9.833 4.747 36.955 36.955 0 0 1-.861-7.944 20.047 20.047 0 0 1 10-17.355 19.963 19.963 0 0 1 20 0 20.05 20.05 0 0 1 10 17.355 38.8 38.8 0 0 1-6.091 20.62c-.1.178-.239.389-.381.6l-.1.153c-.4.624-.815 1.219-1.23 1.8l.127.059.379.185.035.018.021.01c.5.262.9.459 1.308.655a12.882 12.882 0 0 1 3.7 2.356 7.9 7.9 0 0 1 2.23 5.651c0 .013.008.025.008.038v11.691a9.806 9.806 0 0 1-.189 1.866c-.682 3.6-3.673 6.187-8.65 7.479-8.322 2.156-15.542 4.539-19.628 11.9-.439.8-.825 1.628-1.209 2.448-1.445 3.084-2.94 6.271-6.8 7.9a28.6 28.6 0 0 1-7.278 1.719l-.561.081c-1.73.254-3.445.526-5.15.8a116.208 116.208 0 0 1-18.191 1.922h-.357a47.088 47.088 0 0 1-12.528-1.7zm-2.793-6.265a2.3 2.3 0 0 0 1.073 1.9 7.546 7.546 0 0 0 2.62 1.157c10 2.806 19.546 1.292 29.653-.31 1.719-.272 3.446-.546 5.19-.8l.567-.083a25.647 25.647 0 0 0 6.453-1.49c2.688-1.133 3.8-3.5 5.085-6.241.412-.886.832-1.777 1.308-2.645 4.727-8.517 12.966-11.262 21.71-13.526 2.536-.66 5.674-2.034 6.212-4.874h.006a6.543 6.543 0 0 0 .119-1.242v-4.913a14.8 14.8 0 0 1-5.5 2.559c-8.313 2.151-15.533 4.537-19.62 11.917-.444.8-.833 1.637-1.219 2.462-1.377 2.933-2.937 6.261-6.791 7.885a28.6 28.6 0 0 1-7.278 1.721l-.559.081c-1.777.256-3.532.535-5.278.81a116.136 116.136 0 0 1-18.086 1.9 46.927 46.927 0 0 1-12.864-1.691 13.777 13.777 0 0 1-2.8-1.1zm-13.345-45.074a1.584 1.584 0 0 1 .1.5c0 1.808 1.689 3.29 3.108 4.212a29.59 29.59 0 0 0 6.136 2.762c2.334.813 4.792 1.453 7.167 2.074 2.541.662 5.167 1.346 7.708 2.255a19.877 19.877 0 0 1 3.749 1.752 6.051 6.051 0 0 0 1.82-3.656 4.958 4.958 0 0 0-1.591-3.628 12.365 12.365 0 0 0-5.09-3.024c-2.391-.846-4.9-1.5-7.363-2.14s-5.007-1.3-7.482-2.171a31.592 31.592 0 0 1-6.868-3.13 14.317 14.317 0 0 1-1.394-1.031zm60.01-26.924a35.495 35.495 0 0 0 5.592 18.869c.124.206.221.353.321.5l.112.167a48.006 48.006 0 0 0 10.64 11.585 48.157 48.157 0 0 0 10.635-11.569l.119-.18c.1-.148.2-.289.291-.457a35.558 35.558 0 0 0 5.621-18.912 16.683 16.683 0 0 0-16.666-16.7 16.684 16.684 0 0 0-16.666 16.7zm-53.48 6.863a1.681 1.681 0 0 1 1.673-1.688h.017a1.68 1.68 0 0 1 1.68 1.68 1.68 1.68 0 0 1-1.68 1.68h-.009a1.679 1.679 0 0 1-1.682-1.672z" class="prefix__cls-5" data-name="Union 3" transform="translate(6574 -587)"/>
                <path id="prefix__Shape-11" d="M54.417 4a13.44 13.44 0 1 0 13.321 13.44A13.44 13.44 0 0 0 54.417 4zm0 23.52a10.08 10.08 0 1 1 9.961-10.08 10.08 10.08 0 0 1-9.961 10.08z" class="prefix__cls-5" data-name="Shape" transform="translate(25.303 2.503)"/>
                <path id="prefix__Union_1" d="M32.012 50.236L25.2 46.828l-6.812 3.409a1.683 1.683 0 0 1-1.5-3.012l4.554-2.278-2.873-1.435a1.68 1.68 0 0 1 .219-3.1 1.7 1.7 0 0 1 1.283.092L25.2 43.07l5.13-2.566a1.68 1.68 0 1 1 1.5 3l-2.875 1.438 4.554 2.278a1.68 1.68 0 0 1-.751 3.182h-.018a1.675 1.675 0 0 1-.728-.166zm1.528-11.853a1.682 1.682 0 0 1-.516-2.32c.4-.626.754-1.239 1.069-1.837a1.68 1.68 0 0 1 2.977 1.555q-.541 1.023-1.208 2.09a1.688 1.688 0 0 1-1.057.737 1.669 1.669 0 0 1-1.266-.224zm3.575-6.829a1.68 1.68 0 0 1-1.315-1.978 13.345 13.345 0 0 0 .244-1.97v.005a1.681 1.681 0 1 1 3.358.155 16.459 16.459 0 0 1-.3 2.475 1.686 1.686 0 0 1-1.65 1.344 1.949 1.949 0 0 1-.337-.03zm-.779-8.375a1.685 1.685 0 0 1-1.374-.981 13.527 13.527 0 0 0-.977-1.738 1.681 1.681 0 1 1 2.808-1.848 16.676 16.676 0 0 1 1.217 2.17 1.681 1.681 0 0 1-1.52 2.4c-.051.005-.103.003-.154-.002zM30.2 16.351q-.828-.677-1.657-1.253a1.681 1.681 0 1 1 1.924-2.758c.615.432 1.246.9 1.865 1.411a1.681 1.681 0 0 1-2.132 2.6zM24.05 12.5c-.4-.188-.766-.349-1.051-.474s-.513-.216-.67-.277l-.22-.08a1.681 1.681 0 0 1 1.131-3.165l.3.114c.188.072.459.183.781.321s.718.316 1.163.524A1.68 1.68 0 1 1 24.05 12.5zM.177 9.16A1.681 1.681 0 0 1 .931 6.9l4.554-2.274L2.611 3.19a1.68 1.68 0 1 1 1.5-3l5.132 2.56 5.13-2.567a1.681 1.681 0 1 1 1.5 3.007L13 4.626 17.554 6.9a1.683 1.683 0 0 1-1.5 3.012L9.243 6.508l-6.8 3.4a1.67 1.67 0 0 1-.748.177h-.011A1.688 1.688 0 0 1 .177 9.16z" class="prefix__cls-5" data-name="Union 1" transform="translate(19.068 28)"/>
            </g>
        </g>
    </g>
</svg>
